<svg width="50" height="50" viewBox="0 0 50 50" fill="none" xmlns="http://www.w3.org/2000/svg">
<path d="M24.9998 45.8333C33.0415 45.8333 39.5832 39.2916 39.5832 31.25C39.5832 28.5208 38.8123 25.9583 37.4998 23.7708V6.24996C37.4998 5.10413 36.5623 4.16663 35.4165 4.16663H14.5832C13.4373 4.16663 12.4998 5.10413 12.4998 6.24996V23.7708C11.1873 25.9583 10.4165 28.5208 10.4165 31.25C10.4165 39.2916 16.9582 45.8333 24.9998 45.8333ZM24.9998 41.6666C19.2498 41.6666 14.5832 37 14.5832 31.25C14.5832 25.5 19.2498 20.8333 24.9998 20.8333C30.7498 20.8333 35.4165 25.5 35.4165 31.25C35.4165 37 30.7498 41.6666 24.9998 41.6666ZM33.3332 19.2916C31.4998 18.0208 29.3748 17.1666 27.0832 16.8333V8.33329H33.3332V19.2916ZM22.9165 8.33329V16.8333C20.6248 17.1666 18.4998 18.0208 16.6665 19.2916V8.33329H22.9165Z" fill="#3B82F6"/>
</svg>
