<svg width="50" height="51" viewBox="0 0 50 51" fill="none" xmlns="http://www.w3.org/2000/svg">
<path d="M15.625 22.8502C14.8045 22.8502 14.0433 23.0045 13.3379 23.3112C12.6261 23.6206 12.0004 24.0451 11.46 24.5856C10.9207 25.1248 10.4963 25.7571 10.1865 26.485C9.87765 27.2108 9.71573 27.9755 9.7002 28.7809C9.70093 29.5991 9.85521 30.3584 10.1611 31.0621C10.4706 31.774 10.8951 32.3996 11.4355 32.9401C11.976 33.4805 12.6017 33.905 13.3135 34.2145C14.0193 34.5213 14.7896 34.683 15.6279 34.6989C16.4303 34.6985 17.1919 34.5456 17.915 34.2379C18.642 33.9285 19.2643 33.5045 19.7861 32.9674C20.3126 32.4255 20.7395 31.7976 21.0664 31.0817C21.3876 30.3782 21.5498 29.6106 21.5498 28.775C21.5498 27.9716 21.396 27.209 21.0879 26.485C20.7785 25.758 20.3545 25.1357 19.8174 24.6139C19.2765 24.0885 18.6413 23.6617 17.9092 23.3346C17.1864 23.0117 16.4261 22.8502 15.625 22.8502ZM34.375 4.10022C33.5545 4.10022 32.7933 4.2545 32.0879 4.56116C31.3761 4.87064 30.7504 5.29513 30.21 5.83557C29.6707 6.37481 29.2463 7.00714 28.9365 7.73499C28.6277 8.46083 28.4657 9.22552 28.4502 10.0309C28.4509 10.8491 28.6052 11.6084 28.9111 12.3121C29.2206 13.024 29.6451 13.6496 30.1855 14.1901C30.726 14.7305 31.3517 15.155 32.0635 15.4645C32.7693 15.7713 33.5396 15.933 34.3779 15.9489C35.1803 15.9485 35.9419 15.7956 36.665 15.4879C37.392 15.1785 38.0143 14.7545 38.5361 14.2174C39.0626 13.6755 39.4895 13.0476 39.8164 12.3317C40.1376 11.6282 40.2998 10.8606 40.2998 10.025C40.2998 9.22159 40.146 8.45898 39.8379 7.73499C39.5285 7.00799 39.1045 6.38571 38.5674 5.86389C38.0265 5.33848 37.3913 4.91172 36.6592 4.58459C35.9364 4.26167 35.1761 4.10022 34.375 4.10022ZM44.0752 10.025C44.0752 11.557 43.7297 13.0148 43.04 14.3942C42.4263 15.6217 41.5903 16.6629 40.5371 17.5182C41.4434 18.0217 42.2712 18.6174 43.0186 19.3073C43.8858 20.1078 44.636 21.009 45.2695 22.0094C45.9048 23.0125 46.3824 24.083 46.7002 25.2203C47.0174 26.3554 47.1836 27.54 47.2002 28.7711L47.2041 29.1002H43.4248V28.775C43.4248 27.5316 43.189 26.3626 42.7188 25.2653C42.2468 24.164 41.5951 23.207 40.7637 22.3912C39.9298 21.5731 38.9699 20.9274 37.8828 20.4547C36.8023 19.985 35.6332 19.7411 34.3721 19.7252C33.1297 19.7256 31.9617 19.9613 30.8652 20.4313C29.764 20.9032 28.807 21.5549 27.9912 22.3864C27.1731 23.2202 26.5273 24.1801 26.0547 25.2672C25.5848 26.348 25.341 27.5175 25.3252 28.7789C25.3246 30.3095 24.9792 31.7659 24.29 33.1442C23.6763 34.3717 22.8403 35.4129 21.7871 36.2682C22.6934 36.7717 23.5212 37.3674 24.2686 38.0573C25.1358 38.8578 25.886 39.759 26.5195 40.7594C27.1548 41.7625 27.6324 42.833 27.9502 43.9703C28.2674 45.1054 28.4336 46.29 28.4502 47.5211L28.4541 47.8502H24.6748V47.525C24.6748 46.2816 24.439 45.1126 23.9688 44.0153C23.4968 42.914 22.8451 41.9571 22.0137 41.1412C21.1798 40.3231 20.2199 39.6774 19.1328 39.2047C18.0523 38.735 16.8832 38.4911 15.6221 38.4752C14.3797 38.4756 13.2117 38.7113 12.1152 39.1813C11.014 39.6532 10.057 40.3049 9.24121 41.1364C8.42306 41.9702 7.77734 42.9301 7.30469 44.0172C6.83482 45.098 6.59098 46.2675 6.5752 47.5289L6.57129 47.8502H2.7998V47.525C2.7998 46.3068 2.96722 45.1283 3.30176 43.9908C3.63539 42.8565 4.11107 41.788 4.72852 40.7867C5.34628 39.785 6.08911 38.8828 6.95703 38.0817C7.70747 37.389 8.54461 36.7849 9.4668 36.2682C8.42646 35.4127 7.59785 34.3711 6.98438 33.1442C6.29525 31.7659 5.94167 30.3096 5.9248 28.7789V28.775C5.9248 27.4469 6.17736 26.1907 6.68359 25.0094C7.18813 23.8321 7.88758 22.8032 8.78125 21.9264C9.67248 21.052 10.6987 20.3629 11.8574 19.859C13.0226 19.3524 14.2786 19.0916 15.6211 19.0748H15.625C17.157 19.0748 18.6147 19.4203 19.9941 20.11C21.2212 20.7235 22.263 21.5583 23.1182 22.611C23.7125 21.5404 24.4427 20.5726 25.3076 19.7076C26.1734 18.8419 27.1421 18.1109 28.2139 17.5162C27.1748 16.6612 26.3473 15.62 25.7344 14.3942C25.0453 13.0159 24.6917 11.5596 24.6748 10.0289V10.025C24.6748 8.69693 24.9274 7.44066 25.4336 6.2594C25.9381 5.08214 26.6376 4.0532 27.5312 3.17639C28.4225 2.30203 29.4487 1.61286 30.6074 1.10901C31.7726 0.602422 33.0286 0.341611 34.3711 0.324829H34.375L34.8701 0.336548C36.0163 0.391825 37.1072 0.640719 38.1406 1.08362C39.3179 1.58816 40.3468 2.2876 41.2236 3.18127C42.098 4.07251 42.7872 5.0987 43.291 6.25745C43.7976 7.4226 44.0584 8.6786 44.0752 10.0211V10.025Z" fill="#3B82F6" stroke="#3B82F6" stroke-width="0.65"/>
</svg>
